HIERARCHY
ROOT root
{
	OFFSET 0.000000 0.000000 0.000000
	CHANNELS 6 Xposition Yposition Zposition Zrotation Yrotation Xrotation
	JOINT lhip
	{
		OFFSET 0.058581 -0.082280 -0.017664
		CHANNELS 3 Zrotation Yrotation Xrotation
		JOINT lknee
		{
			OFFSET 0.043451 -0.386469 0.008037
			CHANNELS 3 Zrotation Yrotation Xrotation
			JOINT lankle
			{
				OFFSET -0.014790 -0.426874 -0.037428
				CHANNELS 3 Zrotation Yrotation Xrotation
				JOINT ltoe
				{
					OFFSET 0.041054 -0.060286 0.122042
					CHANNELS 3 Zrotation Yrotation Xrotation
					End Site
					{
						OFFSET 0.000000 0.000000 0.000000
					}
				}
			}
		}
	}
	JOINT rhip
	{
		OFFSET -0.060310 -0.090513 -0.013543
		CHANNELS 3 Zrotation Yrotation Xrotation
		JOINT rknee
		{
			OFFSET -0.043257 -0.383688 -0.004843
			CHANNELS 3 Zrotation Yrotation Xrotation
			JOINT rankle
			{
				OFFSET 0.019056 -0.420046 -0.034562
				CHANNELS 3 Zrotation Yrotation Xrotation
				JOINT rtoe
				{
					OFFSET -0.034840 -0.062106 0.130323
					CHANNELS 3 Zrotation Yrotation Xrotation
					End Site
					{
						OFFSET 0.000000 0.000000 0.000000
					}
				}
			}
		}
	}
	JOINT lowerback
	{
		OFFSET 0.004439 0.124404 -0.038385
		CHANNELS 3 Zrotation Yrotation Xrotation
		JOINT upperback
		{
			OFFSET 0.004488 0.137956 0.026820
			CHANNELS 3 Zrotation Yrotation Xrotation
			JOINT chest
			{
				OFFSET -0.002265 0.056032 0.002855
				CHANNELS 3 Zrotation Yrotation Xrotation
				JOINT lowerneck
				{
					OFFSET -0.013390 0.211636 -0.033468
					CHANNELS 3 Zrotation Yrotation Xrotation
					JOINT upperneck
					{
						OFFSET 0.010113 0.088937 0.050410
						CHANNELS 3 Zrotation Yrotation Xrotation
						End Site
						{
							OFFSET 0.000000 0.000000 0.000000
						}
					}
				}
				JOINT lclavicle
				{
					OFFSET 0.071702 0.114000 -0.018898
					CHANNELS 3 Zrotation Yrotation Xrotation
					JOINT lshoulder
					{
						OFFSET 0.122921 0.045205 -0.019046
						CHANNELS 3 Zrotation Yrotation Xrotation
						JOINT lelbow
						{
							OFFSET 0.255332 -0.015649 -0.022946
							CHANNELS 3 Zrotation Yrotation Xrotation
							JOINT lwrist
							{
								OFFSET 0.265709 0.012698 -0.007375
								CHANNELS 3 Zrotation Yrotation Xrotation
								End Site
								{
									OFFSET 0.000000 0.000000 0.000000
								}
							}
						}
					}
				}
				JOINT rclavicle
				{
					OFFSET -0.082954 0.112472 -0.023707
					CHANNELS 3 Zrotation Yrotation Xrotation
					JOINT rshoulder
					{
						OFFSET -0.113228 0.046853 -0.008472
						CHANNELS 3 Zrotation Yrotation Xrotation
						JOINT relbow
						{
							OFFSET -0.260127 -0.014369 -0.031269
							CHANNELS 3 Zrotation Yrotation Xrotation
							JOINT rwrist
							{
								OFFSET -0.269108 0.006794 -0.006027
								CHANNELS 3 Zrotation Yrotation Xrotation
								End Site
								{
									OFFSET 0.000000 0.000000 0.000000
								}
							}
						}
					}
				}
			}
		}
	}
}
MOTION
Frames: 17
Frame Time: 0.033333
-0.554177 0.690416 0.979217 148.450067 -0.304105 79.793569 -2.620946 -2.214805 -2.033997 -5.680581 -6.231994 1.809442 6.610811 11.395676 -4.819892 0.000000 -0.000000 0.000000 3.435628 2.465296 -4.270445 3.407861 0.346613 72.224170 2.161511 -4.121819 -9.347046 0.000000 -0.000000 0.000000 -2.197746 0.741063 7.875900 1.695206 -1.515015 1.471286 -0.939727 -0.609051 1.543390 4.903761 1.347111 -0.365991 3.093153 -1.355102 8.496062 -30.758648 -1.488999 4.813355 -58.788334 -1.105863 8.316908 10.535168 -9.998048 -7.067118 3.932081 -1.578372 -8.295798 26.660014 3.448066 4.968277 57.926525 -2.276922 13.889354 -13.471693 23.023925 -1.316994 7.128213 4.173404 -10.639762 
-0.548077 0.710611 0.984906 148.014991 0.553781 79.100333 -2.009501 -1.342949 -0.481805 -5.833827 -6.938131 2.774044 7.574149 12.021441 -4.608081 0.000000 -0.000000 0.000000 3.249271 3.337880 -11.823141 3.318131 -3.349004 83.737983 1.972993 -4.138018 -13.204476 0.000000 -0.000000 0.000000 -1.609838 -0.632679 9.332548 2.056649 -0.935278 1.582048 -1.135293 -0.909079 1.466167 4.943314 1.611199 -0.206511 2.721544 -1.753796 8.298994 -30.985101 -2.546610 4.819942 -58.315206 -1.910727 8.615025 10.475657 -10.216855 -7.949677 5.032972 -1.127565 -8.060744 26.953592 3.914789 5.003407 57.655563 -2.215665 13.477608 -13.813095 23.322435 -2.236184 6.603627 4.221779 -10.332501 
-0.543827 0.728354 0.990099 147.240975 1.043550 79.280615 -1.978340 -2.095204 1.194160 -5.449291 -6.677081 1.448042 7.716519 13.499406 -3.900891 0.000000 -0.000000 0.000000 1.828986 5.822277 -20.797533 2.036354 -8.049046 94.537869 1.989876 -5.756851 -16.100892 0.000000 -0.000000 0.000000 -1.362516 -1.988831 9.102042 2.392790 -0.048375 3.046660 -1.303541 -0.841443 0.262624 5.468781 1.763518 0.661284 2.145819 -2.244306 8.344048 -30.445036 -4.264379 5.038405 -59.139318 -2.426621 7.632880 11.464600 -9.975454 -12.274072 3.099699 -1.996081 -4.943596 26.774762 5.207017 5.074624 57.899873 -3.135681 11.826257 -13.562249 23.549337 -4.746338 7.434678 3.374584 -8.325679 
-0.539113 0.745052 0.995706 146.489148 1.924797 78.884692 -1.604301 -1.223360 3.584697 -4.933143 -7.362911 -0.091650 8.278337 14.304033 -3.633227 0.000000 -0.000000 0.000000 1.267359 7.323659 -28.403291 0.779140 -10.698442 104.056851 0.834698 -6.907413 -18.133990 0.000000 -0.000000 0.000000 -0.668737 -3.625592 9.866752 2.709819 0.860047 2.950057 -1.519828 -1.014210 0.204096 5.698137 2.015045 1.184452 1.615066 -2.427937 8.645637 -30.487795 -4.354395 4.943423 -59.062751 -2.988273 7.873065 11.794238 -10.618940 -13.043022 2.529732 -1.882223 -5.037829 26.818911 5.379443 5.268789 57.957909 -2.829231 11.739962 -13.897553 23.113057 -5.416841 7.854515 3.307510 -8.367692 
-0.533989 0.760300 1.000171 146.065588 2.712347 78.776237 -1.072097 -0.585950 5.233907 -4.721744 -8.043548 -0.940617 8.567122 14.751350 -3.946126 0.000000 -0.000000 0.000000 0.557750 8.545838 -35.494109 0.273802 -12.828057 112.466248 0.518404 -5.366490 -19.552267 0.000000 -0.000000 0.000000 -0.168266 -5.068322 10.088224 3.102785 1.331444 3.136044 -1.768341 -1.286734 0.052698 6.028577 2.627928 1.525071 1.135796 -2.933414 8.824895 -30.513061 -4.547801 4.786954 -59.025487 -3.185796 7.996105 12.106977 -10.792754 -13.982997 1.852031 -1.764779 -4.321553 26.939759 5.207940 5.449269 57.970688 -2.517009 11.421580 -14.125153 23.215344 -5.462763 7.640939 3.402828 -8.089247 
-0.529028 0.774125 1.003607 146.179782 3.329174 78.738385 -0.332847 -0.108285 6.641692 -5.133623 -8.675568 -1.666185 8.610185 14.716239 -4.279505 0.000000 -0.000000 0.000000 -0.660731 9.320039 -41.739158 -0.328878 -15.073433 119.775595 0.281005 -4.304829 -20.559635 0.000000 -0.000000 0.000000 -0.039975 -6.428593 10.367269 3.534745 1.563167 3.263044 -1.987784 -1.646442 -0.026561 6.475873 3.231393 1.430307 0.733540 -3.534851 8.856221 -30.553687 -4.575515 4.666748 -59.005490 -3.374673 8.256008 12.497119 -10.916482 -14.819269 1.589640 -1.839898 -3.513136 27.139578 4.806475 5.491572 57.887589 -2.299715 11.363305 -14.317104 23.692597 -5.640527 7.626446 3.491735 -7.925179 
-0.524522 0.786831 1.006365 146.217475 3.912690 78.663122 0.486458 0.534808 8.515102 -5.463922 -9.213792 -3.309421 8.321122 14.432861 -4.251385 0.000000 -0.000000 0.000000 -2.184508 9.993349 -46.907899 -1.640793 -17.051205 126.079565 0.032057 -3.997942 -21.280466 0.000000 -0.000000 0.000000 0.282445 -7.745356 10.613505 3.696714 1.913568 3.577038 -2.288437 -1.903526 -0.272721 6.807866 3.598344 1.466970 0.562283 -3.923922 8.590945 -30.559033 -4.568071 4.636297 -59.036737 -3.543378 8.306886 12.877443 -10.841712 -15.666874 1.051538 -1.903241 -3.039421 27.179392 4.605433 5.625499 58.082111 -2.223230 11.378206 -14.552461 24.181651 -5.661134 7.959201 3.528725 -7.899729 
-0.520248 0.798241 1.008268 145.943746 4.501576 78.628637 1.353976 1.171468 10.161880 -5.670292 -9.664322 -4.738196 8.017107 14.200510 -4.520650 0.000000 -0.000000 0.000000 -3.293787 10.554906 -51.037810 -2.789983 -18.486312 131.128856 -0.372604 -3.891151 -21.927423 0.000000 -0.000000 0.000000 0.670661 -8.873833 10.800108 3.757778 2.345234 3.713589 -2.520075 -2.081043 -0.433248 6.997553 3.850514 1.375699 0.377315 -4.142562 8.681013 -30.570597 -4.521926 4.575733 -59.225064 -3.544819 8.295976 13.095188 -10.638163 -16.223911 0.669704 -1.764071 -2.868836 27.134095 4.561720 5.772884 58.155762 -2.096801 11.335155 -14.489586 24.429861 -5.320739 8.635049 3.543131 -7.787391 
-0.516214 0.808134 1.009650 145.920319 4.996405 78.668258 2.008066 1.668827 11.129903 -5.804941 -9.978877 -5.218052 7.786320 13.920301 -5.150674 0.000000 -0.000000 0.000000 -3.943669 10.552241 -54.084738 -3.548604 -19.323334 134.540952 -0.768911 -4.050537 -22.527827 0.000000 -0.000000 0.000000 0.704643 -9.677931 11.095200 3.905456 2.487319 3.563830 -2.535323 -2.300331 -0.428781 7.151066 4.008311 1.031186 0.258703 -4.290706 8.952574 -30.563648 -4.538454 4.536726 -59.565049 -3.502118 8.381414 13.128520 -10.420758 -16.320255 0.684832 -1.597645 -2.783737 27.195211 4.517427 5.758666 57.994335 -1.900263 11.211501 -14.368489 24.414163 -5.175761 9.463716 3.511633 -7.507300 
-0.512635 0.816772 1.010959 145.943854 5.389099 78.719495 2.419030 2.061271 11.886413 -5.763428 -10.168658 -5.512976 7.575732 13.728253 -5.749999 0.000000 -0.000000 0.000000 -4.630109 10.443383 -56.156404 -4.091498 -19.761280 136.199035 -1.045658 -4.298084 -22.930985 0.000000 -0.000000 0.000000 0.696676 -10.254808 11.429374 3.915074 2.571965 3.406536 -2.532116 -2.485870 -0.436836 7.322873 4.075490 0.750335 0.283299 -4.407327 8.992367 -30.513610 -4.578343 4.577658 -59.848693 -3.559668 8.382198 13.150221 -10.224630 -16.272243 0.551331 -1.576723 -2.550487 27.241335 4.562645 5.770670 58.015242 -1.682166 11.141507 -14.347326 24.204212 -5.300986 9.497021 3.395715 -7.310985 
-0.509383 0.824570 1.011995 145.592473 5.756379 78.779891 2.746173 2.331855 12.651601 -5.626580 -10.276717 -5.976912 7.488663 13.816175 -6.219205 0.000000 -0.000000 0.000000 -5.171586 10.792638 -57.472093 -4.220669 -19.926822 136.285786 -1.143505 -4.433523 -23.093902 0.000000 -0.000000 0.000000 0.841663 -10.662832 11.686073 3.836537 2.801172 3.249256 -2.571022 -2.521994 -0.426048 7.423449 4.123225 0.486195 0.253438 -4.437664 9.089131 -30.474834 -4.511889 4.594698 -60.112301 -3.616838 8.353437 13.167486 -10.071007 -16.220688 0.313217 -1.620912 -2.288575 27.177071 4.626901 5.811621 58.100880 -1.555085 11.184867 -14.330127 24.128270 -5.238338 9.570224 3.411688 -7.141935 
-0.506229 0.831748 1.012351 144.931368 6.030442 78.932708 2.837771 2.150092 13.166522 -5.442045 -10.201380 -6.228141 7.695657 14.338271 -6.812953 0.000000 -0.000000 0.000000 -5.581510 11.578803 -58.320691 -4.214885 -19.781584 135.530961 -1.175368 -4.950965 -23.311526 0.000000 -0.000000 0.000000 0.953923 -10.845767 11.639870 3.816424 3.087353 3.253554 -2.557907 -2.534424 -0.410381 7.434644 4.134011 0.352668 0.113501 -4.319733 9.123880 -30.496869 -4.426103 4.687389 -60.385224 -3.616792 8.448716 13.224728 -9.948985 -16.154108 -0.001101 -1.657629 -1.930897 27.111508 4.672897 5.855947 58.067273 -1.448731 11.394138 -14.395631 24.113648 -5.172270 9.860763 3.428591 -7.213311 
-0.503274 0.838140 1.011715 144.218747 6.217629 79.188043 2.746710 1.695909 13.346954 -5.297855 -9.986694 -6.128285 8.324834 15.114968 -7.692167 0.000000 -0.000000 0.000000 -5.884949 12.377871 -58.942040 -4.108976 -19.552732 134.560943 -1.213672 -5.614436 -23.530203 0.000000 -0.000000 0.000000 1.003557 -10.929393 11.370477 3.853267 3.286849 3.445923 -2.522229 -2.536021 -0.428732 7.408862 4.113605 0.250850 -0.035364 -4.087787 8.956073 -30.493251 -4.326467 4.847384 -60.628456 -3.577415 8.562377 13.243422 -9.958127 -15.939677 -0.319329 -1.672578 -1.802491 27.021028 4.744777 5.925286 58.092089 -1.272839 11.616131 -14.662302 24.003399 -5.287144 10.071283 3.383262 -7.423623 
-0.500862 0.843721 1.009981 143.567201 6.306950 79.418818 2.587312 1.313722 13.366016 -5.328051 -9.770696 -5.804821 9.276245 15.986693 -8.730983 0.000000 -0.000000 0.000000 -6.178906 12.970110 -59.369270 -3.898388 -19.435501 133.710040 -1.098031 -5.986102 -23.546516 0.000000 -0.000000 0.000000 1.009782 -10.984310 11.282458 3.870806 3.434103 3.507357 -2.516200 -2.512701 -0.403170 7.441307 4.092688 0.051683 -0.213642 -3.891367 8.678582 -30.488429 -4.207858 4.948457 -60.701924 -3.550768 8.589489 13.194434 -9.992157 -15.795446 -0.766089 -1.703579 -1.746301 26.947018 4.819606 5.956414 58.130356 -1.140235 11.858849 -14.967801 23.932966 -5.561659 10.188714 3.362303 -7.601507 
-0.499001 0.849071 1.007676 142.809503 6.249069 79.515685 2.321487 1.112353 13.369790 -5.481721 -9.548042 -5.292758 10.252794 16.815962 -9.674939 0.000000 -0.000000 0.000000 -6.330195 13.355193 -59.578784 -3.683463 -19.261344 133.089602 -0.996557 -6.344507 -23.648293 0.000000 -0.000000 0.000000 1.025102 -10.973243 11.450814 3.772041 3.638365 3.348129 -2.542453 -2.506706 -0.277740 7.500891 4.080171 -0.179096 -0.390480 -3.555495 8.485587 -30.610889 -4.122803 4.937270 -60.519756 -3.458126 8.580584 13.177719 -9.969111 -15.741824 -1.154386 -1.757879 -1.569731 26.918509 4.947012 5.893146 58.128163 -1.073781 12.157933 -15.180766 23.766202 -5.842037 10.388362 3.339754 -7.655448 
-0.497420 0.854550 1.005873 141.831613 6.037590 79.524183 1.942106 0.970261 13.460973 -5.722669 -9.290398 -4.780835 10.980442 17.665795 -10.316468 0.000000 -0.000000 0.000000 -6.364434 13.606771 -59.655001 -3.645211 -19.057709 132.611467 -1.014370 -6.992145 -23.710769 0.000000 -0.000000 0.000000 1.080035 -10.869188 11.571119 3.568640 3.912488 3.139851 -2.604137 -2.453584 -0.052666 7.465108 3.992703 -0.237492 -0.411389 -3.127150 8.341254 -30.763111 -4.078203 4.875893 -60.243594 -3.360441 8.573838 13.091245 -9.814275 -15.740624 -1.028835 -1.740252 -1.490602 26.861108 5.062730 5.790214 58.228567 -1.042503 12.396917 -15.348885 23.456429 -6.058254 10.356840 3.260060 -7.661281 
-0.496003 0.860039 1.005114 140.879604 5.842687 79.560517 1.624674 1.030074 13.662010 -5.885109 -9.062322 -4.586674 11.375725 18.155669 -10.671681 0.000000 -0.000000 0.000000 -6.339657 13.581556 -59.653747 -3.626412 -19.109707 132.237386 -0.976499 -7.268068 -23.651818 0.000000 -0.000000 0.000000 1.240194 -10.782210 11.547526 3.388483 4.151922 3.062618 -2.664853 -2.384611 0.038449 7.360254 3.865008 -0.202983 -0.429148 -2.780647 8.331607 -30.934979 -4.044697 4.810691 -59.995438 -3.228092 8.557909 12.963998 -9.624438 -15.670247 -0.685713 -1.727580 -1.268468 26.818538 5.109824 5.801720 58.277457 -1.080551 12.418390 -15.361342 23.240666 -6.166511 10.220863 3.222992 -7.504755 
